# xmcd
#
# Track frame offsets:
#	150
#	8325
#	16540
#	27944
#	39117
#	47441
#	57052
#	65731
#	75510
#	84845
#	94466
#	104533
#
# Disc length: 1490 seconds
#
# Revision: 1
# Processed by: cddbd v1.5.2PL0 Copyright (c) Steve Scherf et al.
# Submitted via: audiograbber 1.83.01
#
DISCID=7805d00c
DTITLE=Chad Morgan  - Deadly
DYEAR=2015
DGENRE=Country
TTITLE0=Crafty Toilet Rodent
TTITLE1=He's Gonna Have To Catch Me First
TTITLE2=Double Decker Blowflies
TTITLE3=The Mongrels Message
TTITLE4=Maidens Lament
TTITLE5=It Tickles
TTITLE6=The Bee That Gets The Honey
TTITLE7=Pickin A Plot
TTITLE8=Lord I Wish
TTITLE9=I Made The Prison Band
TTITLE10=The Crow Flying Backwards
TTITLE11=Sting In This Old Bee
EXTD=
EXTT0=
EXTT1=
EXTT2=
EXTT3=
EXTT4=
EXTT5=
EXTT6=
EXTT7=
EXTT8=
EXTT9=
EXTT10=
EXTT11=
PLAYORDER=
